<?xml version="1.0" encoding="UTF-8" standalone="no"?>
<svg width="30px" height="30px" viewBox="0 0 30 30" version="1.1" xmlns="http://www.w3.org/2000/svg" xmlns:xlink="http://www.w3.org/1999/xlink">
    <!-- Generator: sketchtool 3.7 (28169) - http://www.bohemiancoding.com/sketch -->
    <title>8D440AB7-977A-43E0-B9A6-910C4DA073EB</title>
    <desc>Created with sketchtool.</desc>
    <defs></defs>
    <g id="Symbols" stroke="none" stroke-width="1" fill="none" fill-rule="evenodd" fill-opacity="0.900000036">
        <g id="White-Social-Media-Icons" transform="translate(-80.000000, 0.000000)" fill="#FFFFFF">
            <path d="M94.9882507,0 C86.7105679,0 80,6.71671276 80,15.0019755 C80,23.2832872 86.7105679,30 94.9882507,30 C103.261986,30 109.972554,23.2832872 109.972554,15.0019755 C109.972554,6.71671276 103.261986,0 94.9882507,0 L94.9882507,0 Z M102.279085,21.3433426 C102.279085,21.7858554 102.061979,22.2564204 101.623818,22.2564204 L97.9369532,22.2564204 L97.9369532,16.7250099 L99.8119648,16.7250099 L100.096177,14.3544054 L97.9369532,14.3544054 L97.9369532,12.9395496 C97.9369532,12.3073884 98.1066911,11.9838009 99.0145915,11.9838009 L100.305389,11.9838009 L100.305389,9.91702884 C99.9106497,9.88937179 99.2988038,9.83010668 98.497483,9.83010668 C96.8316832,9.83010668 95.5685175,10.8494666 95.5685175,12.7222442 L95.5685175,14.3544054 L93.5948211,14.3544054 L93.5948211,16.7250099 L95.5685175,16.7250099 L95.5685175,22.2564204 L88.731633,22.2564204 C88.289525,22.2564204 88.068471,21.7858554 88.068471,21.3433426 L88.068471,8.43935203 C88.068471,7.99683919 88.289525,7.63769261 88.731633,7.63769261 L101.623818,7.63769261 C102.061979,7.63769261 102.279085,7.99683919 102.279085,8.43935203 L102.279085,21.3433426 L102.279085,21.3433426 Z" id="Facebook"></path>
        </g>
    </g>
</svg>