<?xml version="1.0" encoding="UTF-8" standalone="no"?>
<svg width="30px" height="30px" viewBox="0 0 30 30" version="1.1" xmlns="http://www.w3.org/2000/svg" xmlns:xlink="http://www.w3.org/1999/xlink">
    <!-- Generator: sketchtool 3.7 (28169) - http://www.bohemiancoding.com/sketch -->
    <title>BCE356C1-5536-45CB-8645-0CC8538A61A9</title>
    <desc>Created with sketchtool.</desc>
    <defs></defs>
    <g id="Symbols" stroke="none" stroke-width="1" fill="none" fill-rule="evenodd" fill-opacity="0.900000036">
        <g id="White-Social-Media-Icons" transform="translate(-120.000000, 0.000000)" fill="#FFFFFF">
            <path d="M120,15.0019755 C120,23.2832872 126.710568,30 134.988251,30 C143.261986,30 149.972554,23.2832872 149.972554,15.0019755 C149.972554,6.71671276 143.261986,0 134.988251,0 C126.710568,0 120,6.71671276 120,15.0019755 Z M132.079022,20.2647175 C129.284268,20.2647175 127.018465,17.9336231 127.018465,15.1323588 C127.018465,12.3310944 129.284268,10.0256815 132.079022,10.0256815 C133.389557,10.0256815 134.585617,10.5144212 135.481675,11.3322797 C134.423774,12.3358356 134.4593,12.3868036 134.040876,12.8056104 C133.523768,12.3709996 132.955343,12.0564994 132.079022,12.0564994 C130.41717,12.0564994 129.122425,13.4069538 129.122425,15.0703279 C129.122425,16.7337021 130.41717,18.1951798 132.079022,18.1951798 C133.71719,18.1951798 134.3843,17.4757013 134.814565,16.2903991 L132.138233,16.2903991 L132.138233,14.3148953 L136.938263,14.3148953 C137.273791,16.6854998 136.255364,20.2647175 132.079022,20.2647175 L132.079022,20.2647175 Z M142.796194,15.5001976 L141.217237,15.5001976 L141.217237,17.4757013 L140.033019,17.4757013 L140.033019,15.5001976 L138.059322,15.5001976 L138.059322,14.3148953 L140.033019,14.3148953 L140.033019,12.7344923 L141.217237,12.7344923 L141.217237,14.3148953 L142.796194,14.3148953 L142.796194,15.5001976 L142.796194,15.5001976 Z" id="Google+"></path>
        </g>
    </g>
</svg>