<?xml version="1.0" encoding="UTF-8" standalone="no"?>
<svg width="30px" height="30px" viewBox="0 0 30 30" version="1.1" xmlns="http://www.w3.org/2000/svg" xmlns:xlink="http://www.w3.org/1999/xlink">
    <!-- Generator: sketchtool 3.7 (28169) - http://www.bohemiancoding.com/sketch -->
    <title>6A77F828-1218-43DD-A63C-5E02B54B7D6C</title>
    <desc>Created with sketchtool.</desc>
    <defs></defs>
    <g id="Symbols" stroke="none" stroke-width="1" fill="none" fill-rule="evenodd" fill-opacity="0.900000036">
        <g id="White-Social-Media-Icons" transform="translate(-40.000000, 0.000000)" fill="#FFFFFF">
            <path d="M40,15.0019755 C40,23.2832872 46.7105679,30 54.9882507,30 C63.2619862,30 69.9725541,23.2832872 69.9725541,15.0019755 C69.9725541,6.71671276 63.2619862,0 54.9882507,0 C46.7105679,0 40,6.71671276 40,15.0019755 Z M48.4632103,12.5918609 L51.2263853,12.5918609 L51.2263853,21.6791782 L48.4632103,21.6791782 L48.4632103,12.5918609 Z M49.6829547,11.8016594 L49.6632178,11.8016594 C48.6329482,11.8016594 47.9697862,11.0154089 47.9697862,10.1422363 C47.9697862,9.25325958 48.6526852,8.53022521 49.7026917,8.53022521 C50.7487508,8.53022521 51.3921758,9.27696563 51.4158602,10.1659423 C51.4158602,11.039115 50.7487508,11.8016594 49.6829547,11.8016594 L49.6829547,11.8016594 Z M62.6738247,21.6791782 L59.1211711,21.6791782 L59.1211711,17.0762544 C59.1211711,15.8553931 58.7145896,15.0256815 57.6053722,15.0256815 C56.7606301,15.0256815 56.2711534,15.5867246 56.0500994,16.1280126 C55.9672042,16.321612 55.9632568,16.5902805 55.9632568,16.8629 L55.9632568,21.6791782 L52.9079747,21.6791782 C52.9079747,21.6791782 52.9474486,13.3820624 52.9079747,12.5918609 L55.9632568,12.5918609 L55.9632568,14.1446069 C56.3579961,13.5282497 57.3053704,12.647175 58.9316962,12.647175 C60.948814,12.647175 62.6738247,13.9391545 62.6738247,16.7285658 L62.6738247,21.6791782 L62.6738247,21.6791782 Z" id="Linkedin"></path>
        </g>
    </g>
</svg>