<?xml version="1.0" encoding="UTF-8" standalone="no"?>
<svg width="30px" height="30px" viewBox="0 0 30 30" version="1.1" xmlns="http://www.w3.org/2000/svg" xmlns:xlink="http://www.w3.org/1999/xlink">
    <!-- Generator: sketchtool 3.7 (28169) - http://www.bohemiancoding.com/sketch -->
    <title>71958845-5E27-41A2-A461-531DA3C4480A</title>
    <desc>Created with sketchtool.</desc>
    <defs></defs>
    <g id="Symbols" stroke="none" stroke-width="1" fill="none" fill-rule="evenodd" fill-opacity="0.899999976">
        <g id="White-Social-Media-Icons" fill="#FFFFFF">
            <path d="M14.9882507,0 C6.71056788,0 0,6.71671276 0,15.0019755 C0,23.2832872 6.71056788,30 14.9882507,30 C23.2619862,30 29.9725541,23.2832872 29.9725541,15.0019755 C29.9725541,6.71671276 23.2619862,0 14.9882507,0 L14.9882507,0 Z M20.6843387,11.8214145 C20.688286,11.9557487 20.6922334,12.090083 20.6922334,12.2244172 C20.6922334,16.337416 17.6408987,21.0825761 12.0632326,21.0825761 C10.3500641,21.0825761 8.75531739,20.5649941 7.41320382,19.6839194 C7.65004739,19.7115765 7.89083835,19.7273805 8.13557671,19.7273805 C9.55663815,19.7273805 10.8671726,19.2295535 11.9053369,18.395891 C10.5750655,18.3682339 9.45795332,17.4713552 9.07110882,16.2346898 C9.25663629,16.2702489 9.44611115,16.290004 9.6395334,16.290004 C9.91979829,16.290004 10.2198001,16.2504939 10.4724333,16.1793757 C9.082951,15.8949032 8.06847103,14.6345318 8.06847103,13.1252469 L8.06847103,13.0896879 C8.46321032,13.3188463 8.9171605,13.4610826 9.414532,13.4768866 C8.59742168,12.9197945 8.04873407,11.9636507 8.04873407,10.8850257 C8.04873407,10.3160806 8.19084021,9.77874358 8.45136814,9.32042671 C9.94743004,11.2050573 12.177707,12.4417226 14.7000911,12.5721059 C14.6448276,12.3429475 14.6191695,12.105887 14.6191695,11.8648755 C14.6191695,10.1461873 15.9758884,8.75148163 17.6499778,8.75148163 C18.5223516,8.75148163 19.3110407,9.12682734 19.8636757,9.73133149 C20.5544694,9.59304623 21.2018419,9.33623074 21.7900034,8.97668906 C21.565002,9.70367444 21.0830253,10.3160806 20.4553899,10.6993283 C21.0711832,10.6242592 21.6553973,10.4583169 22.1961901,10.2094034 C21.7935561,10.8336626 21.2764476,11.3828526 20.6843387,11.8214145 L20.6843387,11.8214145 Z" id="Twitter"></path>
        </g>
    </g>
</svg>